<?xml version="1.0" encoding="UTF-8" standalone="no"?>
<!DOCTYPE svg PUBLIC "-//W3C//DTD SVG 1.1//EN"
 "http://www.w3.org/Graphics/SVG/1.1/DTD/svg11.dtd">
<!-- Generated by graphviz version 2.43.0 (0)
 -->
<!-- Title: %3 Pages: 1 -->
<svg width="459pt" height="473pt"
 viewBox="0.00 0.00 459.40 473.00" xmlns="http://www.w3.org/2000/svg" xmlns:xlink="http://www.w3.org/1999/xlink">
<g id="graph0" class="graph" transform="scale(1 1) rotate(0) translate(4 469)">
<title>%3</title>
<polygon fill="white" stroke="transparent" points="-4,4 -4,-469 455.4,-469 455.4,4 -4,4"/>
<!-- E -->
<g id="node1" class="node">
<title>E</title>
<ellipse fill="none" stroke="black" cx="234" cy="-22" rx="27" ry="18"/>
<ellipse fill="none" stroke="black" cx="234" cy="-22" rx="31" ry="22"/>
<text text-anchor="middle" x="234" y="-18.3" font-family="Times,serif" font-size="14.00">E</text>
</g>
<!-- start -->
<g id="node2" class="node">
<title>start</title>
</g>
<!-- S -->
<g id="node3" class="node">
<title>S</title>
<ellipse fill="none" stroke="black" cx="202" cy="-374" rx="27" ry="18"/>
<text text-anchor="middle" x="202" y="-370.3" font-family="Times,serif" font-size="14.00">S</text>
</g>
<!-- start&#45;&gt;S -->
<g id="edge1" class="edge">
<title>start&#45;&gt;S</title>
<path fill="none" stroke="black" d="M202,-428.81C202,-420.79 202,-411.05 202,-402.07"/>
<polygon fill="black" stroke="black" points="205.5,-402.03 202,-392.03 198.5,-402.03 205.5,-402.03"/>
</g>
<!-- A -->
<g id="node4" class="node">
<title>A</title>
<ellipse fill="none" stroke="black" cx="144" cy="-287" rx="27" ry="18"/>
<text text-anchor="middle" x="144" y="-283.3" font-family="Times,serif" font-size="14.00">A</text>
</g>
<!-- S&#45;&gt;A -->
<g id="edge2" class="edge">
<title>S&#45;&gt;A</title>
<path fill="none" stroke="red" d="M191.36,-357.41C189.21,-354.25 186.83,-350.76 184.31,-347.07"/>
<path fill="none" stroke="green" d="M184.31,-347.07C181.79,-343.38 179.14,-339.5 176.45,-335.55"/>
<path fill="none" stroke="red" d="M176.45,-335.55C173.76,-331.61 171.02,-327.6 168.34,-323.68"/>
<path fill="none" stroke="green" d="M168.34,-323.68C165.67,-319.75 163.04,-315.91 160.57,-312.28"/>
<polygon fill="green" stroke="green" points="163.29,-310.07 154.77,-303.78 157.51,-314.01 163.29,-310.07"/>
<text text-anchor="middle" x="181.5" y="-326.8" font-family="Times,serif" font-size="14.00">a</text>
</g>
<!-- B -->
<g id="node5" class="node">
<title>B</title>
<ellipse fill="none" stroke="black" cx="261" cy="-287" rx="27" ry="18"/>
<text text-anchor="middle" x="261" y="-283.3" font-family="Times,serif" font-size="14.00">B</text>
</g>
<!-- S&#45;&gt;B -->
<g id="edge3" class="edge">
<title>S&#45;&gt;B</title>
<path fill="none" stroke="green" d="M212.82,-357.41C221.58,-344.79 234.08,-326.79 244.15,-312.28"/>
<polygon fill="green" stroke="green" points="247.22,-313.99 250.05,-303.78 241.47,-310 247.22,-313.99"/>
<text text-anchor="middle" x="241" y="-326.8" font-family="Times,serif" font-size="14.00">b</text>
</g>
<!-- AA -->
<g id="node6" class="node">
<title>AA</title>
<ellipse fill="none" stroke="black" cx="27" cy="-200" rx="27" ry="18"/>
<text text-anchor="middle" x="27" y="-196.3" font-family="Times,serif" font-size="14.00">AA</text>
</g>
<!-- A&#45;&gt;AA -->
<g id="edge4" class="edge">
<title>A&#45;&gt;AA</title>
<path fill="none" stroke="red" d="M126.48,-273.27C107.01,-259.13 75.37,-236.14 53,-219.89"/>
<polygon fill="red" stroke="red" points="54.78,-216.86 44.64,-213.81 50.67,-222.52 54.78,-216.86"/>
<text text-anchor="middle" x="97.5" y="-239.8" font-family="Times,serif" font-size="14.00">a</text>
</g>
<!-- AB -->
<g id="node7" class="node">
<title>AB</title>
<ellipse fill="none" stroke="black" cx="144" cy="-200" rx="27" ry="18"/>
<text text-anchor="middle" x="144" y="-196.3" font-family="Times,serif" font-size="14.00">AB</text>
</g>
<!-- A&#45;&gt;AB -->
<g id="edge5" class="edge">
<title>A&#45;&gt;AB</title>
<path fill="none" stroke="green" d="M144,-268.8C144,-257.16 144,-241.55 144,-228.24"/>
<polygon fill="green" stroke="green" points="147.5,-228.18 144,-218.18 140.5,-228.18 147.5,-228.18"/>
<text text-anchor="middle" x="149" y="-239.8" font-family="Times,serif" font-size="14.00">b</text>
</g>
<!-- BA -->
<g id="node8" class="node">
<title>BA</title>
<ellipse fill="none" stroke="black" cx="261" cy="-200" rx="27" ry="18"/>
<text text-anchor="middle" x="261" y="-196.3" font-family="Times,serif" font-size="14.00">BA</text>
</g>
<!-- B&#45;&gt;BA -->
<g id="edge6" class="edge">
<title>B&#45;&gt;BA</title>
<path fill="none" stroke="green" d="M261,-268.8C261,-257.16 261,-241.55 261,-228.24"/>
<polygon fill="green" stroke="green" points="264.5,-228.18 261,-218.18 257.5,-228.18 264.5,-228.18"/>
<text text-anchor="middle" x="265.5" y="-239.8" font-family="Times,serif" font-size="14.00">a</text>
</g>
<!-- BB -->
<g id="node9" class="node">
<title>BB</title>
<ellipse fill="none" stroke="black" cx="378" cy="-200" rx="27" ry="18"/>
<text text-anchor="middle" x="378" y="-196.3" font-family="Times,serif" font-size="14.00">BB</text>
</g>
<!-- B&#45;&gt;BB -->
<g id="edge7" class="edge">
<title>B&#45;&gt;BB</title>
<path fill="none" stroke="green" d="M278.52,-273.27C297.99,-259.13 329.63,-236.14 352,-219.89"/>
<polygon fill="green" stroke="green" points="354.33,-222.52 360.36,-213.81 350.22,-216.86 354.33,-222.52"/>
<text text-anchor="middle" x="332" y="-239.8" font-family="Times,serif" font-size="14.00">b</text>
</g>
<!-- AA&#45;&gt;AA -->
<g id="edge8" class="edge">
<title>AA&#45;&gt;AA</title>
<path fill="none" stroke="blue" d="M51.53,-207.75C62.51,-208.49 72,-205.91 72,-200 72,-196.03 67.72,-193.56 61.57,-192.59"/>
<polygon fill="blue" stroke="blue" points="61.65,-189.09 51.53,-192.25 61.41,-196.09 61.65,-189.09"/>
<text text-anchor="middle" x="85.5" y="-196.3" font-family="Times,serif" font-size="14.00">a, b</text>
</g>
<!-- AAxB -->
<g id="node10" class="node">
<title>AAxB</title>
<ellipse fill="none" stroke="black" cx="47" cy="-113" rx="36" ry="18"/>
<text text-anchor="middle" x="47" y="-109.3" font-family="Times,serif" font-size="14.00">AAxB</text>
</g>
<!-- AA&#45;&gt;AAxB -->
<g id="edge12" class="edge">
<title>AA&#45;&gt;AAxB</title>
<path fill="none" stroke="red" d="M31.05,-181.8C33.79,-170.16 37.46,-154.55 40.59,-141.24"/>
<polygon fill="red" stroke="red" points="44.08,-141.71 42.96,-131.18 37.26,-140.11 44.08,-141.71"/>
<text text-anchor="middle" x="44" y="-152.8" font-family="Times,serif" font-size="14.00">b</text>
</g>
<!-- AB&#45;&gt;AB -->
<g id="edge9" class="edge">
<title>AB&#45;&gt;AB</title>
<path fill="none" stroke="blue" d="M168.53,-207.75C179.51,-208.49 189,-205.91 189,-200 189,-196.03 184.72,-193.56 178.57,-192.59"/>
<polygon fill="blue" stroke="blue" points="178.65,-189.09 168.53,-192.25 178.41,-196.09 178.65,-189.09"/>
<text text-anchor="middle" x="202.5" y="-196.3" font-family="Times,serif" font-size="14.00">a, b</text>
</g>
<!-- ABxB -->
<g id="node11" class="node">
<title>ABxB</title>
<ellipse fill="none" stroke="black" cx="144" cy="-113" rx="36.29" ry="18"/>
<text text-anchor="middle" x="144" y="-109.3" font-family="Times,serif" font-size="14.00">ABxB</text>
</g>
<!-- AB&#45;&gt;ABxB -->
<g id="edge13" class="edge">
<title>AB&#45;&gt;ABxB</title>
<path fill="none" stroke="green" d="M144,-181.8C144,-170.16 144,-154.55 144,-141.24"/>
<polygon fill="green" stroke="green" points="147.5,-141.18 144,-131.18 140.5,-141.18 147.5,-141.18"/>
<text text-anchor="middle" x="149" y="-152.8" font-family="Times,serif" font-size="14.00">b</text>
</g>
<!-- BA&#45;&gt;BA -->
<g id="edge10" class="edge">
<title>BA&#45;&gt;BA</title>
<path fill="none" stroke="blue" d="M285.53,-207.75C296.51,-208.49 306,-205.91 306,-200 306,-196.03 301.72,-193.56 295.57,-192.59"/>
<polygon fill="blue" stroke="blue" points="295.65,-189.09 285.53,-192.25 295.41,-196.09 295.65,-189.09"/>
<text text-anchor="middle" x="319.5" y="-196.3" font-family="Times,serif" font-size="14.00">a, b</text>
</g>
<!-- BAxA -->
<g id="node12" class="node">
<title>BAxA</title>
<ellipse fill="none" stroke="black" cx="234" cy="-113" rx="36" ry="18"/>
<text text-anchor="middle" x="234" y="-109.3" font-family="Times,serif" font-size="14.00">BAxA</text>
</g>
<!-- BA&#45;&gt;BAxA -->
<g id="edge14" class="edge">
<title>BA&#45;&gt;BAxA</title>
<path fill="none" stroke="green" d="M255.67,-182.21C251.92,-170.41 246.83,-154.38 242.52,-140.82"/>
<polygon fill="green" stroke="green" points="245.78,-139.52 239.42,-131.05 239.11,-141.64 245.78,-139.52"/>
<text text-anchor="middle" x="254.5" y="-152.8" font-family="Times,serif" font-size="14.00">a</text>
</g>
<!-- BB&#45;&gt;BB -->
<g id="edge11" class="edge">
<title>BB&#45;&gt;BB</title>
<path fill="none" stroke="blue" d="M402.53,-207.75C413.51,-208.49 423,-205.91 423,-200 423,-196.03 418.72,-193.56 412.57,-192.59"/>
<polygon fill="blue" stroke="blue" points="412.65,-189.09 402.53,-192.25 412.41,-196.09 412.65,-189.09"/>
<text text-anchor="middle" x="436.5" y="-196.3" font-family="Times,serif" font-size="14.00">a, b</text>
</g>
<!-- BBxA -->
<g id="node13" class="node">
<title>BBxA</title>
<ellipse fill="none" stroke="black" cx="324" cy="-113" rx="36.29" ry="18"/>
<text text-anchor="middle" x="324" y="-109.3" font-family="Times,serif" font-size="14.00">BBxA</text>
</g>
<!-- BB&#45;&gt;BBxA -->
<g id="edge15" class="edge">
<title>BB&#45;&gt;BBxA</title>
<path fill="none" stroke="green" d="M367.84,-183.01C360.02,-170.7 349.07,-153.46 340.06,-139.28"/>
<polygon fill="green" stroke="green" points="342.8,-137.06 334.48,-130.5 336.89,-140.81 342.8,-137.06"/>
<text text-anchor="middle" x="358.5" y="-152.8" font-family="Times,serif" font-size="14.00">a</text>
</g>
<!-- BBxB -->
<g id="node14" class="node">
<title>BBxB</title>
<ellipse fill="none" stroke="black" cx="415" cy="-113" rx="36.29" ry="18"/>
<text text-anchor="middle" x="415" y="-109.3" font-family="Times,serif" font-size="14.00">BBxB</text>
</g>
<!-- BB&#45;&gt;BBxB -->
<g id="edge16" class="edge">
<title>BB&#45;&gt;BBxB</title>
<path fill="none" stroke="green" d="M385.13,-182.61C390.34,-170.65 397.5,-154.2 403.51,-140.4"/>
<polygon fill="green" stroke="green" points="406.85,-141.49 407.63,-130.92 400.43,-138.69 406.85,-141.49"/>
<text text-anchor="middle" x="403" y="-152.8" font-family="Times,serif" font-size="14.00">b</text>
</g>
<!-- AAxB&#45;&gt;E -->
<g id="edge17" class="edge">
<title>AAxB&#45;&gt;E</title>
<path fill="none" stroke="red" d="M72.22,-100C105.07,-84.36 162.66,-56.95 199.53,-39.41"/>
<polygon fill="red" stroke="red" points="201.36,-42.41 208.88,-34.95 198.35,-36.09 201.36,-42.41"/>
<text text-anchor="middle" x="157" y="-65.8" font-family="Times,serif" font-size="14.00">b</text>
</g>
<!-- ABxB&#45;&gt;E -->
<g id="edge18" class="edge">
<title>ABxB&#45;&gt;E</title>
<path fill="none" stroke="green" d="M159.68,-96.5C173.27,-83.06 193.18,-63.37 208.97,-47.75"/>
<polygon fill="green" stroke="green" points="211.7,-49.98 216.35,-40.46 206.77,-45 211.7,-49.98"/>
<text text-anchor="middle" x="199.5" y="-65.8" font-family="Times,serif" font-size="14.00">a</text>
</g>
<!-- BAxA&#45;&gt;E -->
<g id="edge19" class="edge">
<title>BAxA&#45;&gt;E</title>
<path fill="none" stroke="green" d="M234,-94.84C234,-83.44 234,-68.13 234,-54.58"/>
<polygon fill="green" stroke="green" points="237.5,-54.19 234,-44.19 230.5,-54.19 237.5,-54.19"/>
<text text-anchor="middle" x="239" y="-65.8" font-family="Times,serif" font-size="14.00">b</text>
</g>
<!-- BBxA&#45;&gt;E -->
<g id="edge20" class="edge">
<title>BBxA&#45;&gt;E</title>
<path fill="none" stroke="green" d="M308.32,-96.5C294.73,-83.06 274.82,-63.37 259.03,-47.75"/>
<polygon fill="green" stroke="green" points="261.23,-45 251.65,-40.46 256.3,-49.98 261.23,-45"/>
<text text-anchor="middle" x="293" y="-65.8" font-family="Times,serif" font-size="14.00">b</text>
</g>
<!-- BBxB&#45;&gt;E -->
<g id="edge21" class="edge">
<title>BBxB&#45;&gt;E</title>
<path fill="none" stroke="green" d="M390.21,-99.81C358.57,-84.25 303.68,-57.26 268.11,-39.77"/>
<polygon fill="green" stroke="green" points="269.59,-36.6 259.07,-35.33 266.5,-42.88 269.59,-36.6"/>
<text text-anchor="middle" x="344.5" y="-65.8" font-family="Times,serif" font-size="14.00">a</text>
</g>
</g>
</svg>
