<?xml version="1.0" encoding="UTF-8" standalone="no"?>
<!DOCTYPE svg PUBLIC "-//W3C//DTD SVG 1.1//EN"
 "http://www.w3.org/Graphics/SVG/1.1/DTD/svg11.dtd">
<!-- Generated by graphviz version 2.43.0 (0)
 -->
<!-- Title: %3 Pages: 1 -->
<svg width="191pt" height="481pt"
 viewBox="0.00 0.00 191.00 481.00" xmlns="http://www.w3.org/2000/svg" xmlns:xlink="http://www.w3.org/1999/xlink">
<g id="graph0" class="graph" transform="scale(1 1) rotate(0) translate(4 477)">
<title>%3</title>
<polygon fill="white" stroke="transparent" points="-4,4 -4,-477 187,-477 187,4 -4,4"/>
<!-- E -->
<g id="node1" class="node">
<title>E</title>
<ellipse fill="none" stroke="black" cx="31" cy="-22" rx="27" ry="18"/>
<ellipse fill="none" stroke="black" cx="31" cy="-22" rx="31" ry="22"/>
<text text-anchor="middle" x="31" y="-18.3" font-family="Times,serif" font-size="14.00">E</text>
</g>
<!-- AAA -->
<g id="node2" class="node">
<title>AAA</title>
<ellipse fill="none" stroke="black" cx="77" cy="-117" rx="29.81" ry="18"/>
<ellipse fill="none" stroke="black" cx="77" cy="-117" rx="33.8" ry="22"/>
<text text-anchor="middle" x="77" y="-113.3" font-family="Times,serif" font-size="14.00">AAA</text>
</g>
<!-- A -->
<g id="node5" class="node">
<title>A</title>
<ellipse fill="none" stroke="black" cx="66" cy="-295" rx="27" ry="18"/>
<text text-anchor="middle" x="66" y="-291.3" font-family="Times,serif" font-size="14.00">A</text>
</g>
<!-- AAA&#45;&gt;A -->
<g id="edge5" class="edge">
<title>AAA&#45;&gt;A</title>
<path fill="none" stroke="black" d="M75.68,-139.06C73.69,-170.96 69.9,-231.53 67.7,-266.75"/>
<polygon fill="black" stroke="black" points="64.21,-266.61 67.07,-276.8 71.19,-267.04 64.21,-266.61"/>
<text text-anchor="middle" x="77.5" y="-204.3" font-family="Times,serif" font-size="14.00">a</text>
</g>
<!-- start -->
<g id="node3" class="node">
<title>start</title>
</g>
<!-- S -->
<g id="node4" class="node">
<title>S</title>
<ellipse fill="none" stroke="black" cx="66" cy="-382" rx="27" ry="18"/>
<text text-anchor="middle" x="66" y="-378.3" font-family="Times,serif" font-size="14.00">S</text>
</g>
<!-- start&#45;&gt;S -->
<g id="edge1" class="edge">
<title>start&#45;&gt;S</title>
<path fill="none" stroke="black" d="M66,-436.81C66,-428.79 66,-419.05 66,-410.07"/>
<polygon fill="black" stroke="black" points="69.5,-410.03 66,-400.03 62.5,-410.03 69.5,-410.03"/>
</g>
<!-- S&#45;&gt;A -->
<g id="edge2" class="edge">
<title>S&#45;&gt;A</title>
<path fill="none" stroke="black" d="M66,-363.8C66,-352.16 66,-336.55 66,-323.24"/>
<polygon fill="black" stroke="black" points="69.5,-323.18 66,-313.18 62.5,-323.18 69.5,-323.18"/>
<text text-anchor="middle" x="70.5" y="-334.8" font-family="Times,serif" font-size="14.00">a</text>
</g>
<!-- A&#45;&gt;E -->
<g id="edge6" class="edge">
<title>A&#45;&gt;E</title>
<path fill="none" stroke="black" d="M61.44,-276.96C54.09,-248.59 39.85,-189.77 34,-139 30.7,-110.36 30.15,-77.5 30.31,-54.08"/>
<polygon fill="black" stroke="black" points="33.81,-54.07 30.43,-44.03 26.81,-53.99 33.81,-54.07"/>
<text text-anchor="middle" x="44" y="-160.8" font-family="Times,serif" font-size="14.00">b</text>
</g>
<!-- AA -->
<g id="node6" class="node">
<title>AA</title>
<ellipse fill="none" stroke="black" cx="120" cy="-208" rx="27" ry="18"/>
<text text-anchor="middle" x="120" y="-204.3" font-family="Times,serif" font-size="14.00">AA</text>
</g>
<!-- A&#45;&gt;AA -->
<g id="edge3" class="edge">
<title>A&#45;&gt;AA</title>
<path fill="none" stroke="black" d="M76.16,-278.01C84.08,-265.55 95.22,-248.01 104.28,-233.74"/>
<polygon fill="black" stroke="black" points="107.48,-235.23 109.89,-224.92 101.57,-231.48 107.48,-235.23"/>
<text text-anchor="middle" x="101.5" y="-247.8" font-family="Times,serif" font-size="14.00">a</text>
</g>
<!-- AA&#45;&gt;AAA -->
<g id="edge4" class="edge">
<title>AA&#45;&gt;AAA</title>
<path fill="none" stroke="black" d="M112.11,-190.68C106.27,-178.57 98.14,-161.75 91.17,-147.33"/>
<polygon fill="black" stroke="black" points="94.3,-145.76 86.8,-138.28 88,-148.81 94.3,-145.76"/>
<text text-anchor="middle" x="107.5" y="-160.8" font-family="Times,serif" font-size="14.00">a</text>
</g>
<!-- B -->
<g id="node7" class="node">
<title>B</title>
<ellipse fill="none" stroke="black" cx="156" cy="-117" rx="27" ry="18"/>
<text text-anchor="middle" x="156" y="-113.3" font-family="Times,serif" font-size="14.00">B</text>
</g>
<!-- AA&#45;&gt;B -->
<g id="edge7" class="edge">
<title>AA&#45;&gt;B</title>
<path fill="none" stroke="black" d="M126.77,-190.26C132,-177.33 139.34,-159.2 145.35,-144.33"/>
<polygon fill="black" stroke="black" points="148.75,-145.25 149.26,-134.67 142.26,-142.62 148.75,-145.25"/>
<text text-anchor="middle" x="145" y="-160.8" font-family="Times,serif" font-size="14.00">b</text>
</g>
<!-- B&#45;&gt;E -->
<g id="edge8" class="edge">
<title>B&#45;&gt;E</title>
<path fill="none" stroke="black" d="M138.62,-103.07C118.34,-87.98 84.48,-62.79 60.15,-44.69"/>
<polygon fill="black" stroke="black" points="62.1,-41.77 51.98,-38.61 57.92,-47.39 62.1,-41.77"/>
<text text-anchor="middle" x="106" y="-65.8" font-family="Times,serif" font-size="14.00">b</text>
</g>
</g>
</svg>
